<?xml version="1.0" encoding="UTF-8"?> <!-- Generator: Adobe Illustrator 17.0.1, SVG Export Plug-In . SVG Version: 6.00 Build 0) --> <svg xmlns="http://www.w3.org/2000/svg" xmlns:xlink="http://www.w3.org/1999/xlink" id="Layer_1" x="0px" y="0px" width="1080px" height="1080px" viewBox="0 0 1080 1080" xml:space="preserve"> <g> <path fill="#44A1D1" d="M714.611,49.581c-5.389-3.234-10.778-3.234-16.168,0c-5.389,2.156-8.623,7.545-8.623,12.934v274.85 c-48.503-16.168-99.162-24.79-150.898-24.79s-102.395,8.623-150.898,24.79V76.527c0-5.389-3.234-10.778-8.623-14.012 c-5.389-3.234-11.856-2.156-16.168,0C167.066,186.467,71.138,350.299,71.138,564.79c0,258.683,209.102,468.862,466.707,468.862 s466.707-210.18,466.707-468.862C1005.629,341.677,909.701,173.533,714.611,49.581z M538.922,1001.317 c-239.281,0-434.371-196.168-434.371-436.527c0-192.934,81.916-342.755,252.216-458.084v251.138c0,2.156,0,4.311,1.078,5.389 l1.078,2.156c1.078,4.311,4.311,7.545,8.623,8.623c4.311,2.156,8.623,2.156,12.934,0c48.503-19.401,102.395-29.102,158.443-29.102 s109.94,10.778,160.599,31.258c5.389,2.156,10.778,1.078,15.09-1.078c4.311-2.156,7.545-8.623,7.545-14.012V93.772 C890.299,210.18,973.293,364.311,973.293,565.868C973.293,806.228,778.204,1001.317,538.922,1001.317z"></path> <path fill="#44A1D1" d="M423.593,589.581c0,8.623,7.545,16.168,16.168,16.168c8.623,0,16.168-7.545,16.168-16.168 c0-44.192-38.802-80.838-86.228-80.838s-86.228,36.647-86.228,80.838c0,8.623,7.545,16.168,16.168,16.168 s16.168-7.545,16.168-16.168c0-26.946,23.713-48.503,53.892-48.503S423.593,563.713,423.593,589.581z"></path> <path fill="#44A1D1" d="M707.066,508.743c-47.425,0-86.228,36.647-86.228,80.838c0,8.623,7.545,16.168,16.168,16.168 s16.168-7.545,16.168-16.168c0-26.946,23.713-48.503,53.892-48.503c30.18,0,53.892,21.557,53.892,48.503 c0,8.623,7.545,16.168,16.168,16.168c8.623,0,16.168-7.545,16.168-16.168C793.293,545.389,754.491,508.743,707.066,508.743z"></path> <path fill="#44A1D1" d="M709.222,764.192c-8.623,0-16.168,7.545-16.168,16.168c0,38.802-31.258,70.06-70.06,70.06 c-37.725,0-67.904-29.102-70.06-66.826l58.204-88.383c3.234-5.389,3.234-11.856,1.078-16.168 c-3.234-5.389-8.623-8.623-14.012-8.623H468.862c-6.467,0-11.856,3.234-14.012,8.623c-3.234,5.389-2.156,11.856,1.078,16.168 l58.204,88.383c-2.156,36.647-32.335,66.826-70.06,66.826c-38.802,0-70.06-31.258-70.06-70.06c0-8.623-7.545-16.168-16.168-16.168 s-16.168,7.545-16.168,16.168c0,56.048,46.347,102.395,102.395,102.395c38.802,0,72.216-21.557,89.461-52.814 c17.246,31.258,50.659,52.814,89.461,52.814c56.048,0,102.395-46.347,102.395-102.395 C725.389,771.737,717.844,764.192,709.222,764.192z M568.024,702.754l-34.491,51.737l-34.491-51.737H568.024z"></path> </g> <polygon fill="#44A1D1" points="533.533,777.126 472.096,689.82 585.269,689.82 "></polygon> </svg> 